<svg xmlns="http://www.w3.org/2000/svg" xmlns:xlink="http://www.w3.org/1999/xlink" xmlns:lucid="lucid" width="963.63" height="343.4"><g transform="translate(-367.375 -296.6)" lucid:page-tab-id="0_0"><path d="M0 0h1870.4v1323.2H0z" fill="#fff"/><path d="M480 460h160v160H480z" stroke="#a5a5a5" stroke-width="2" fill="#f6edc5"/><use xlink:href="#a" transform="matrix(1,0,0,1,485,465) translate(57.525 80.025)"/><path d="M1040 460h160v160h-160z" stroke="#a5a5a5" stroke-width="2" fill="#f6edc5"/><use xlink:href="#b" transform="matrix(1,0,0,1,1045,465) translate(67.5 80.025)"/><path d="M1086.33 458h-2v-38h-253.2v-2h255.2zM787.9 420H597v20.5h-2V418h192.9z" fill="#6c7777"/><path d="M1086.33 459h-2v-1.03h2zM596 455.76l-4.64-14.26h9.28z" fill="#6c7777"/><path d="M596 459l-6-18.5h12zm-3.26-16.5l3.26 10.03 3.26-10.03z" fill="#6c7777"/><use xlink:href="#c" transform="matrix(1,0,0,1,787.8921327677372,397.4) translate(0 14.4)"/><use xlink:href="#d" transform="matrix(1,0,0,1,787.8921327677372,397.4) translate(8.4 14.4)"/><use xlink:href="#e" transform="matrix(1,0,0,1,787.8921327677372,397.4) translate(16.8 14.4)"/><use xlink:href="#f" transform="matrix(1,0,0,1,787.8921327677372,397.4) translate(26.450000000000003 14.4)"/><use xlink:href="#g" transform="matrix(1,0,0,1,787.8921327677372,397.4) translate(0 36)"/><path d="M427.74 420H401v76.82h59.5v2H399V418h28.74zm91.08 38h-2v-38h-49.08v-2h51.08z" fill="#6c7777"/><path d="M518.82 459h-2v-1.03h2zM475.76 497.82l-14.26 4.63v-9.27z" fill="#6c7777"/><path d="M479 497.82l-18.5 6v-12zm-16.5 3.26l10.03-3.26-10.03-3.26z" fill="#6c7777"/><use xlink:href="#h" transform="matrix(1,0,0,1,427.73519264167027,386.6) translate(0 14.4)"/><use xlink:href="#i" transform="matrix(1,0,0,1,427.73519264167027,386.6) translate(0 36)"/><use xlink:href="#g" transform="matrix(1,0,0,1,427.73519264167027,386.6) translate(0 57.6)"/><path d="M401 604.75h59.5v2H399v-16.3h2zm77-71.82h-77v14.3h-2v-16.3h79z" fill="#6c7777"/><path d="M479 532.93h-1.03v-2H479zM475.76 605.75l-14.26 4.64v-9.28z" fill="#6c7777"/><path d="M479 605.75l-18.5 6v-12zM462.5 609l10.03-3.25-10.03-3.26z" fill="#6c7777"/><use xlink:href="#c" transform="matrix(1,0,0,1,378.375,547.241169400901) translate(0 14.4)"/><use xlink:href="#d" transform="matrix(1,0,0,1,378.375,547.241169400901) translate(8.4 14.4)"/><use xlink:href="#e" transform="matrix(1,0,0,1,378.375,547.241169400901) translate(16.8 14.4)"/><use xlink:href="#f" transform="matrix(1,0,0,1,378.375,547.241169400901) translate(26.450000000000003 14.4)"/><use xlink:href="#g" transform="matrix(1,0,0,1,378.375,547.241169400901) translate(0 36)"/><path d="M790.5 541H642v-2h148.5zm230 0H834.46v-2h186.04z" fill="#6c7777"/><path d="M642.03 541H641v-2h1.03zM1035.76 540l-14.26 4.64v-9.28z" fill="#6c7777"/><path d="M1039 540l-18.5 6v-12zm-16.5 3.26l10.03-3.26-10.03-3.26z" fill="#6c7777"/><use xlink:href="#j" transform="matrix(1,0,0,1,790.5104628855371,507.6) translate(0 14.4)"/><use xlink:href="#k" transform="matrix(1,0,0,1,790.5104628855371,507.6) translate(0 36)"/><use xlink:href="#g" transform="matrix(1,0,0,1,790.5104628855371,507.6) translate(0 57.6)"/><path d="M1301 574.64h-99v-2h97V545.9h2zm0-71.95h-2v-26.76h-79.5v-2h81.5z" fill="#6c7777"/><path d="M1202.03 574.64H1201v-2h1.03zM1218.5 479.57l-14.26-4.63 14.26-4.64z" fill="#6c7777"/><path d="M1219.5 480.95l-18.5-6 18.5-6.02zm-12.03-6l10.03 3.25v-6.52z" fill="#6c7777"/><g><use xlink:href="#j" transform="matrix(1,0,0,1,1280,502.6910381749557) translate(0 14.4)"/><use xlink:href="#g" transform="matrix(1,0,0,1,1280,502.6910381749557) translate(0 36)"/></g><path d="M1124.57 458h-2V341h-260.8v-2h262.8zm-302.8-117H561v99.5h-2V339h262.78z" fill="#6c7777"/><path d="M1124.57 459h-2v-1.03h2zM560 455.76l-4.64-14.26h9.28z" fill="#6c7777"/><path d="M560 459l-6-18.5h12zm-3.26-16.5l3.26 10.03 3.26-10.03z" fill="#6c7777"/><g><use xlink:href="#l" transform="matrix(1,0,0,1,821.7849335209279,307.6) translate(0 14.4)"/><use xlink:href="#i" transform="matrix(1,0,0,1,821.7849335209279,307.6) translate(0 36)"/><use xlink:href="#g" transform="matrix(1,0,0,1,821.7849335209279,307.6) translate(0 57.6)"/></g><defs><path fill="#6c7878" d="M16-82v-28h88v28H16" id="m"/><path fill="#6c7878" d="M140-251c81 0 123 46 123 126C263-46 219 4 140 4 59 4 17-45 17-125s42-126 123-126zm0 227c63 0 89-41 89-101s-29-99-89-99c-61 0-89 39-89 99S79-25 140-24" id="n"/><path fill="#6c7878" d="M84 4C-5 8 30-112 23-190h32v120c0 31 7 50 39 49 72-2 45-101 50-169h31l1 190h-30c-1-10 1-25-2-33-11 22-28 36-60 37" id="o"/><path fill="#6c7878" d="M59-47c-2 24 18 29 38 22v24C64 9 27 4 27-40v-127H5v-23h24l9-43h21v43h35v23H59v120" id="p"/><g id="a"><use transform="matrix(0.05,0,0,0.05,0,0)" xlink:href="#m"/><use transform="matrix(0.05,0,0,0.05,5.95,0)" xlink:href="#n"/><use transform="matrix(0.05,0,0,0.05,19.95,0)" xlink:href="#o"/><use transform="matrix(0.05,0,0,0.05,29.950000000000003,0)" xlink:href="#p"/></g><path fill="#6c7878" d="M33 0v-248h34V0H33" id="q"/><path fill="#6c7878" d="M117-194c89-4 53 116 60 194h-32v-121c0-31-8-49-39-48C34-167 62-67 57 0H25l-1-190h30c1 10-1 24 2 32 11-22 29-35 61-36" id="r"/><g id="b"><use transform="matrix(0.05,0,0,0.05,0,0)" xlink:href="#q"/><use transform="matrix(0.05,0,0,0.05,5,0)" xlink:href="#r"/></g><path fill="#6c7878" d="M47-170H22l-4-78h33" id="s"/><use transform="matrix(0.05,0,0,0.05,0,0)" xlink:href="#s" id="c"/><use transform="matrix(0.05,0,0,0.05,0,0)" xlink:href="#s" id="d"/><path fill="#6c7878" d="M32 76v-337h29V76H32" id="t"/><use transform="matrix(0.05,0,0,0.05,0,0)" xlink:href="#t" id="e"/><path fill="#6c7878" d="M72 4L0-261h28L100 4H72" id="u"/><g id="f"><use transform="matrix(0.05,0,0,0.05,0,0)" xlink:href="#s"/><use transform="matrix(0.05,0,0,0.05,3.4000000000000004,0)" xlink:href="#u"/><use transform="matrix(0.05,0,0,0.05,8.4,0)" xlink:href="#p"/><use transform="matrix(0.05,0,0,0.05,13.4,0)" xlink:href="#s"/></g><path fill="#6c7878" d="M118-107v75H92v-75H18v-26h74v-75h26v75h74v26h-74" id="v"/><path fill="#6c7878" d="M96-169c-40 0-48 33-48 73s9 75 48 75c24 0 41-14 43-38l32 2c-6 37-31 61-74 61-59 0-76-41-82-99-10-93 101-131 147-64 4 7 5 14 7 22l-32 3c-4-21-16-35-41-35" id="w"/><g id="g"><use transform="matrix(0.05,0,0,0.05,0,0)" xlink:href="#v"/><use transform="matrix(0.05,0,0,0.05,10.5,0)" xlink:href="#v"/><use transform="matrix(0.05,0,0,0.05,21,0)" xlink:href="#r"/><use transform="matrix(0.05,0,0,0.05,31,0)" xlink:href="#w"/></g><g id="h"><use transform="matrix(0.05,0,0,0.05,0,0)" xlink:href="#s"/><use transform="matrix(0.05,0,0,0.05,3.4000000000000004,0)" xlink:href="#u"/><use transform="matrix(0.05,0,0,0.05,8.4,0)" xlink:href="#r"/><use transform="matrix(0.05,0,0,0.05,18.4,0)" xlink:href="#s"/></g><path fill="#6c7878" d="M24 0v-261h32V0H24" id="x"/><g id="i"><use transform="matrix(0.05,0,0,0.05,0,0)" xlink:href="#v"/><use transform="matrix(0.05,0,0,0.05,10.5,0)" xlink:href="#v"/><use transform="matrix(0.05,0,0,0.05,21,0)" xlink:href="#r"/><use transform="matrix(0.05,0,0,0.05,31,0)" xlink:href="#x"/></g><path fill="#6c7878" d="M100-194c62-1 85 37 85 99 1 63-27 99-86 99S16-35 15-95c0-66 28-99 85-99zM99-20c44 1 53-31 53-75 0-43-8-75-51-75s-53 32-53 75 10 74 51 75" id="y"/><path fill="#6c7878" d="M114-163C36-179 61-72 57 0H25l-1-190h30c1 12-1 29 2 39 6-27 23-49 58-41v29" id="z"/><g id="j"><use transform="matrix(0.05,0,0,0.05,0,0)" xlink:href="#y"/><use transform="matrix(0.05,0,0,0.05,10,0)" xlink:href="#p"/><use transform="matrix(0.05,0,0,0.05,15,0)" xlink:href="#z"/><use transform="matrix(0.05,0,0,0.05,20.95,0)" xlink:href="#y"/></g><path fill="#6c7878" d="M206 0h-36l-40-164L89 0H53L-1-190h32L70-26l43-164h34l41 164 42-164h31" id="A"/><g id="k"><use transform="matrix(0.05,0,0,0.05,0,0)" xlink:href="#v"/><use transform="matrix(0.05,0,0,0.05,10.5,0)" xlink:href="#v"/><use transform="matrix(0.05,0,0,0.05,21,0)" xlink:href="#r"/><use transform="matrix(0.05,0,0,0.05,31,0)" xlink:href="#A"/></g><g id="l"><use transform="matrix(0.05,0,0,0.05,0,0)" xlink:href="#s"/><use transform="matrix(0.05,0,0,0.05,3.4000000000000004,0)" xlink:href="#u"/><use transform="matrix(0.05,0,0,0.05,8.4,0)" xlink:href="#r"/><use transform="matrix(0.05,0,0,0.05,18.4,0)" xlink:href="#u"/></g></defs></g></svg>